<svg xmlns="http://www.w3.org/2000/svg" xmlns:xlink="http://www.w3.org/1999/xlink" width="500" zoomAndPan="magnify" viewBox="0 0 375 374.999991" height="500" preserveAspectRatio="xMidYMid meet" version="1.0"><defs><g/><clipPath id="58f160a6c1"><path d="M 139.5 208 L 141 208 L 141 210 L 139.5 210 Z M 139.5 208 " clip-rule="nonzero"/></clipPath><clipPath id="4e428e4770"><path d="M 160 160.808594 L 212 160.808594 L 212 201 L 160 201 Z M 160 160.808594 " clip-rule="nonzero"/></clipPath><clipPath id="a918a73555"><path d="M 139.5 136 L 141 136 L 141 138 L 139.5 138 Z M 139.5 136 " clip-rule="nonzero"/></clipPath><clipPath id="c84ee68bc6"><path d="M 160 145 L 212 145 L 212 185.722656 L 160 185.722656 Z M 160 145 " clip-rule="nonzero"/></clipPath></defs><rect x="-37.5" width="450" fill="#ffffff" y="-37.499999" height="449.999989" fill-opacity="1"/><rect x="-37.5" width="450" fill="#ffffff" y="-37.499999" height="449.999989" fill-opacity="1"/><path fill="#1e0e2b" d="M 167.753906 226.335938 L 169.613281 226.335938 L 169.613281 228.195312 L 167.753906 228.195312 Z M 167.753906 226.335938 " fill-opacity="1" fill-rule="nonzero"/><path fill="#1e0e2b" d="M 173.296875 220.324219 L 175.632812 220.324219 L 175.632812 222.660156 L 173.296875 222.660156 Z M 173.296875 220.324219 " fill-opacity="1" fill-rule="nonzero"/><path fill="#1e0e2b" d="M 178.796875 214.257812 L 181.746094 214.257812 L 181.746094 217.207031 L 178.796875 217.207031 Z M 178.796875 214.257812 " fill-opacity="1" fill-rule="nonzero"/><path fill="#1e0e2b" d="M 161.308594 190.914062 L 164.425781 190.914062 L 164.425781 194.03125 L 161.308594 194.03125 Z M 161.308594 190.914062 " fill-opacity="1" fill-rule="nonzero"/><path fill="#1e0e2b" d="M 167.085938 196.691406 L 170.203125 196.691406 L 170.203125 199.808594 L 167.085938 199.808594 Z M 167.085938 196.691406 " fill-opacity="1" fill-rule="nonzero"/><path fill="#1e0e2b" d="M 172.910156 202.515625 L 176.027344 202.515625 L 176.027344 205.632812 L 172.910156 205.632812 Z M 172.910156 202.515625 " fill-opacity="1" fill-rule="nonzero"/><path fill="#1e0e2b" d="M 178.960938 202.515625 L 182.082031 202.515625 L 182.082031 205.632812 L 178.960938 205.632812 Z M 178.960938 202.515625 " fill-opacity="1" fill-rule="nonzero"/><path fill="#1e0e2b" d="M 184.621094 202.515625 L 187.742188 202.515625 L 187.742188 205.632812 L 184.621094 205.632812 Z M 184.621094 202.515625 " fill-opacity="1" fill-rule="nonzero"/><path fill="#1e0e2b" d="M 190.28125 202.515625 L 193.402344 202.515625 L 193.402344 205.632812 L 190.28125 205.632812 Z M 190.28125 202.515625 " fill-opacity="1" fill-rule="nonzero"/><path fill="#1e0e2b" d="M 196.03125 202.515625 L 199.148438 202.515625 L 199.148438 205.632812 L 196.03125 205.632812 Z M 196.03125 202.515625 " fill-opacity="1" fill-rule="nonzero"/><path fill="#1e0e2b" d="M 178.691406 208.296875 L 181.808594 208.296875 L 181.808594 211.414062 L 178.691406 211.414062 Z M 178.691406 208.296875 " fill-opacity="1" fill-rule="nonzero"/><path fill="#1e0e2b" d="M 184.621094 208.296875 L 187.742188 208.296875 L 187.742188 211.414062 L 184.621094 211.414062 Z M 184.621094 208.296875 " fill-opacity="1" fill-rule="nonzero"/><path fill="#1e0e2b" d="M 190.578125 208.296875 L 193.695312 208.296875 L 193.695312 211.414062 L 190.578125 211.414062 Z M 190.578125 208.296875 " fill-opacity="1" fill-rule="nonzero"/><path fill="#1e0e2b" d="M 196.03125 208.296875 L 199.148438 208.296875 L 199.148438 211.414062 L 196.03125 211.414062 Z M 196.03125 208.296875 " fill-opacity="1" fill-rule="nonzero"/><path fill="#1e0e2b" d="M 172.960938 208.421875 L 175.910156 208.421875 L 175.910156 211.367188 L 172.960938 211.367188 Z M 172.960938 208.421875 " fill-opacity="1" fill-rule="nonzero"/><path fill="#1e0e2b" d="M 167.148438 202.609375 L 170.097656 202.609375 L 170.097656 205.554688 L 167.148438 205.554688 Z M 167.148438 202.609375 " fill-opacity="1" fill-rule="nonzero"/><path fill="#1e0e2b" d="M 161.335938 196.789062 L 164.285156 196.789062 L 164.285156 199.738281 L 161.335938 199.738281 Z M 161.335938 196.789062 " fill-opacity="1" fill-rule="nonzero"/><path fill="#1e0e2b" d="M 155.710938 197 L 158.335938 197 L 158.335938 199.625 L 155.710938 199.625 Z M 155.710938 197 " fill-opacity="1" fill-rule="nonzero"/><path fill="#1e0e2b" d="M 161.484375 202.777344 L 164.109375 202.777344 L 164.109375 205.402344 L 161.484375 205.402344 Z M 161.484375 202.777344 " fill-opacity="1" fill-rule="nonzero"/><path fill="#1e0e2b" d="M 167.308594 208.601562 L 169.933594 208.601562 L 169.933594 211.226562 L 167.308594 211.226562 Z M 167.308594 208.601562 " fill-opacity="1" fill-rule="nonzero"/><path fill="#1e0e2b" d="M 173.097656 214.386719 L 175.722656 214.386719 L 175.722656 217.011719 L 173.097656 217.011719 Z M 173.097656 214.386719 " fill-opacity="1" fill-rule="nonzero"/><path fill="#1e0e2b" d="M 167.484375 214.511719 L 169.820312 214.511719 L 169.820312 216.847656 L 167.484375 216.847656 Z M 167.484375 214.511719 " fill-opacity="1" fill-rule="nonzero"/><path fill="#1e0e2b" d="M 161.671875 208.699219 L 164.007812 208.699219 L 164.007812 211.035156 L 161.671875 211.035156 Z M 161.671875 208.699219 " fill-opacity="1" fill-rule="nonzero"/><path fill="#1e0e2b" d="M 155.851562 202.878906 L 158.1875 202.878906 L 158.1875 205.214844 L 155.851562 205.214844 Z M 155.851562 202.878906 " fill-opacity="1" fill-rule="nonzero"/><path fill="#1e0e2b" d="M 150.257812 203.078125 L 152.265625 203.078125 L 152.265625 205.085938 L 150.257812 205.085938 Z M 150.257812 203.078125 " fill-opacity="1" fill-rule="nonzero"/><path fill="#1e0e2b" d="M 156.027344 208.855469 L 158.035156 208.855469 L 158.035156 210.863281 L 156.027344 210.863281 Z M 156.027344 208.855469 " fill-opacity="1" fill-rule="nonzero"/><path fill="#1e0e2b" d="M 161.851562 214.679688 L 163.859375 214.679688 L 163.859375 216.6875 L 161.851562 216.6875 Z M 161.851562 214.679688 " fill-opacity="1" fill-rule="nonzero"/><path fill="#1e0e2b" d="M 167.640625 220.464844 L 169.652344 220.464844 L 169.652344 222.472656 L 167.640625 222.472656 Z M 167.640625 220.464844 " fill-opacity="1" fill-rule="nonzero"/><path fill="#1e0e2b" d="M 161.941406 220.527344 L 163.800781 220.527344 L 163.800781 222.390625 L 161.941406 222.390625 Z M 161.941406 220.527344 " fill-opacity="1" fill-rule="nonzero"/><path fill="#1e0e2b" d="M 156.128906 214.714844 L 157.988281 214.714844 L 157.988281 216.578125 L 156.128906 216.578125 Z M 156.128906 214.714844 " fill-opacity="1" fill-rule="nonzero"/><path fill="#1e0e2b" d="M 150.316406 208.898438 L 152.175781 208.898438 L 152.175781 210.757812 L 150.316406 210.757812 Z M 150.316406 208.898438 " fill-opacity="1" fill-rule="nonzero"/><path fill="#1e0e2b" d="M 144.714844 209.097656 L 146.246094 209.097656 L 146.246094 210.628906 L 144.714844 210.628906 Z M 144.714844 209.097656 " fill-opacity="1" fill-rule="nonzero"/><path fill="#1e0e2b" d="M 150.484375 214.875 L 152.019531 214.875 L 152.019531 216.40625 L 150.484375 216.40625 Z M 150.484375 214.875 " fill-opacity="1" fill-rule="nonzero"/><path fill="#1e0e2b" d="M 156.308594 220.691406 L 157.84375 220.691406 L 157.84375 222.226562 L 156.308594 222.226562 Z M 156.308594 220.691406 " fill-opacity="1" fill-rule="nonzero"/><path fill="#1e0e2b" d="M 162.101562 226.480469 L 163.632812 226.480469 L 163.632812 228.015625 L 162.101562 228.015625 Z M 162.101562 226.480469 " fill-opacity="1" fill-rule="nonzero"/><path fill="#1e0e2b" d="M 156.921875 226.382812 L 157.949219 226.382812 L 157.949219 227.410156 L 156.921875 227.410156 Z M 156.921875 226.382812 " fill-opacity="1" fill-rule="nonzero"/><path fill="#1e0e2b" d="M 151.109375 220.570312 L 152.136719 220.570312 L 152.136719 221.597656 L 151.109375 221.597656 Z M 151.109375 220.570312 " fill-opacity="1" fill-rule="nonzero"/><path fill="#1e0e2b" d="M 145.273438 214.734375 L 146.300781 214.734375 L 146.300781 215.761719 L 145.273438 215.761719 Z M 145.273438 214.734375 " fill-opacity="1" fill-rule="nonzero"/><g clip-path="url(#58f160a6c1)"><path fill="#1e0e2b" d="M 139.5 208.960938 L 140.527344 208.960938 L 140.527344 209.988281 L 139.5 209.988281 Z M 139.5 208.960938 " fill-opacity="1" fill-rule="nonzero"/></g><path fill="#1e0e2b" d="M 144.519531 203.101562 L 146.382812 203.101562 L 146.382812 204.964844 L 144.519531 204.964844 Z M 144.519531 203.101562 " fill-opacity="1" fill-rule="nonzero"/><path fill="#1e0e2b" d="M 150.0625 197.089844 L 152.398438 197.089844 L 152.398438 199.425781 L 150.0625 199.425781 Z M 150.0625 197.089844 " fill-opacity="1" fill-rule="nonzero"/><path fill="#1e0e2b" d="M 155.566406 191.023438 L 158.511719 191.023438 L 158.511719 193.972656 L 155.566406 193.972656 Z M 155.566406 191.023438 " fill-opacity="1" fill-rule="nonzero"/><path fill="#1e0e2b" d="M 226 203.453125 L 227.859375 203.453125 L 227.859375 205.316406 L 226 205.316406 Z M 226 203.453125 " fill-opacity="1" fill-rule="nonzero"/><path fill="#1e0e2b" d="M 219.980469 197.441406 L 222.316406 197.441406 L 222.316406 199.777344 L 219.980469 199.777344 Z M 219.980469 197.441406 " fill-opacity="1" fill-rule="nonzero"/><path fill="#1e0e2b" d="M 213.921875 191.328125 L 216.871094 191.328125 L 216.871094 194.277344 L 213.921875 194.277344 Z M 213.921875 191.328125 " fill-opacity="1" fill-rule="nonzero"/><g clip-path="url(#4e428e4770)"><path fill="#1e0e2b" d="M 205.976562 183.457031 L 206.046875 183.457031 L 206.046875 178.277344 L 200.242188 178.277344 L 200.242188 172.464844 L 194.664062 172.464844 L 194.664062 166.65625 L 188.957031 166.65625 L 188.957031 160.878906 L 183.472656 160.878906 L 183.472656 166.65625 L 177.765625 166.65625 L 177.765625 172.464844 L 172.128906 172.464844 L 172.128906 178.277344 L 166.320312 178.277344 L 166.320312 184.113281 L 160.542969 184.113281 L 160.542969 190.324219 L 166.449219 190.324219 L 166.449219 195.304688 L 172.527344 195.304688 L 172.527344 200.546875 L 199.902344 200.546875 L 199.902344 195.304688 L 206.046875 195.304688 L 206.046875 190.324219 L 211.882812 190.324219 L 211.882812 184.113281 L 205.976562 184.113281 Z M 205.976562 183.457031 " fill-opacity="1" fill-rule="nonzero"/></g><path fill="#1e0e2b" d="M 202.179688 197.046875 L 205.296875 197.046875 L 205.296875 200.164062 L 202.179688 200.164062 Z M 202.179688 197.046875 " fill-opacity="1" fill-rule="nonzero"/><path fill="#1e0e2b" d="M 207.960938 191.265625 L 211.082031 191.265625 L 211.082031 194.382812 L 207.960938 194.382812 Z M 207.960938 191.265625 " fill-opacity="1" fill-rule="nonzero"/><path fill="#1e0e2b" d="M 208.085938 197.164062 L 211.035156 197.164062 L 211.035156 200.113281 L 208.085938 200.113281 Z M 208.085938 197.164062 " fill-opacity="1" fill-rule="nonzero"/><path fill="#1e0e2b" d="M 202.273438 202.976562 L 205.21875 202.976562 L 205.21875 205.925781 L 202.273438 205.925781 Z M 202.273438 202.976562 " fill-opacity="1" fill-rule="nonzero"/><path fill="#1e0e2b" d="M 196.277344 214.738281 L 198.902344 214.738281 L 198.902344 217.363281 L 196.277344 217.363281 Z M 196.277344 214.738281 " fill-opacity="1" fill-rule="nonzero"/><path fill="#1e0e2b" d="M 202.441406 208.960938 L 205.066406 208.960938 L 205.066406 211.585938 L 202.441406 211.585938 Z M 202.441406 208.960938 " fill-opacity="1" fill-rule="nonzero"/><path fill="#1e0e2b" d="M 208.269531 203.136719 L 210.890625 203.136719 L 210.890625 205.761719 L 208.269531 205.761719 Z M 208.269531 203.136719 " fill-opacity="1" fill-rule="nonzero"/><path fill="#1e0e2b" d="M 214.050781 197.351562 L 216.675781 197.351562 L 216.675781 199.976562 L 214.050781 199.976562 Z M 214.050781 197.351562 " fill-opacity="1" fill-rule="nonzero"/><path fill="#1e0e2b" d="M 214.175781 203.253906 L 216.511719 203.253906 L 216.511719 205.589844 L 214.175781 205.589844 Z M 214.175781 203.253906 " fill-opacity="1" fill-rule="nonzero"/><path fill="#1e0e2b" d="M 208.363281 209.0625 L 210.699219 209.0625 L 210.699219 211.398438 L 208.363281 211.398438 Z M 208.363281 209.0625 " fill-opacity="1" fill-rule="nonzero"/><path fill="#1e0e2b" d="M 202.542969 214.878906 L 204.878906 214.878906 L 204.878906 217.21875 L 202.542969 217.21875 Z M 202.542969 214.878906 " fill-opacity="1" fill-rule="nonzero"/><path fill="#1e0e2b" d="M 202.742188 220.808594 L 204.75 220.808594 L 204.75 222.820312 L 202.742188 222.820312 Z M 202.742188 220.808594 " fill-opacity="1" fill-rule="nonzero"/><path fill="#1e0e2b" d="M 208.515625 215.03125 L 210.523438 215.03125 L 210.523438 217.039062 L 208.515625 217.039062 Z M 208.515625 215.03125 " fill-opacity="1" fill-rule="nonzero"/><path fill="#1e0e2b" d="M 214.339844 209.214844 L 216.347656 209.214844 L 216.347656 211.222656 L 214.339844 211.222656 Z M 214.339844 209.214844 " fill-opacity="1" fill-rule="nonzero"/><path fill="#1e0e2b" d="M 220.128906 203.425781 L 222.136719 203.425781 L 222.136719 205.433594 L 220.128906 205.433594 Z M 220.128906 203.425781 " fill-opacity="1" fill-rule="nonzero"/><path fill="#1e0e2b" d="M 220.1875 209.265625 L 222.046875 209.265625 L 222.046875 211.128906 L 220.1875 211.128906 Z M 220.1875 209.265625 " fill-opacity="1" fill-rule="nonzero"/><path fill="#1e0e2b" d="M 214.378906 215.078125 L 216.242188 215.078125 L 216.242188 216.941406 L 214.378906 216.941406 Z M 214.378906 215.078125 " fill-opacity="1" fill-rule="nonzero"/><path fill="#1e0e2b" d="M 208.5625 220.898438 L 210.421875 220.898438 L 210.421875 222.757812 L 208.5625 222.757812 Z M 208.5625 220.898438 " fill-opacity="1" fill-rule="nonzero"/><path fill="#1e0e2b" d="M 208.761719 226.828125 L 210.292969 226.828125 L 210.292969 228.359375 L 208.761719 228.359375 Z M 208.761719 226.828125 " fill-opacity="1" fill-rule="nonzero"/><path fill="#1e0e2b" d="M 214.53125 221.050781 L 216.066406 221.050781 L 216.066406 222.582031 L 214.53125 222.582031 Z M 214.53125 221.050781 " fill-opacity="1" fill-rule="nonzero"/><path fill="#1e0e2b" d="M 220.355469 215.230469 L 221.890625 215.230469 L 221.890625 216.765625 L 220.355469 216.765625 Z M 220.355469 215.230469 " fill-opacity="1" fill-rule="nonzero"/><path fill="#1e0e2b" d="M 226.148438 209.441406 L 227.679688 209.441406 L 227.679688 210.976562 L 226.148438 210.976562 Z M 226.148438 209.441406 " fill-opacity="1" fill-rule="nonzero"/><path fill="#1e0e2b" d="M 226.046875 215.125 L 227.074219 215.125 L 227.074219 216.152344 L 226.046875 216.152344 Z M 226.046875 215.125 " fill-opacity="1" fill-rule="nonzero"/><path fill="#1e0e2b" d="M 220.234375 220.933594 L 221.261719 220.933594 L 221.261719 221.960938 L 220.234375 221.960938 Z M 220.234375 220.933594 " fill-opacity="1" fill-rule="nonzero"/><path fill="#1e0e2b" d="M 214.390625 226.777344 L 215.417969 226.777344 L 215.417969 227.804688 L 214.390625 227.804688 Z M 214.390625 226.777344 " fill-opacity="1" fill-rule="nonzero"/><path fill="#1e0e2b" d="M 208.621094 232.546875 L 209.648438 232.546875 L 209.648438 233.574219 L 208.621094 233.574219 Z M 208.621094 232.546875 " fill-opacity="1" fill-rule="nonzero"/><path fill="#1e0e2b" d="M 202.765625 226.6875 L 204.628906 226.6875 L 204.628906 228.550781 L 202.765625 228.550781 Z M 202.765625 226.6875 " fill-opacity="1" fill-rule="nonzero"/><path fill="#1e0e2b" d="M 196.367188 220.675781 L 198.703125 220.675781 L 198.703125 223.011719 L 196.367188 223.011719 Z M 196.367188 220.675781 " fill-opacity="1" fill-rule="nonzero"/><path fill="#1e0e2b" d="M 190.6875 214.5625 L 193.636719 214.5625 L 193.636719 217.511719 L 190.6875 217.511719 Z M 190.6875 214.5625 " fill-opacity="1" fill-rule="nonzero"/><path fill="#1e0e2b" d="M 167.753906 120.195312 L 169.613281 120.195312 L 169.613281 118.335938 L 167.753906 118.335938 Z M 167.753906 120.195312 " fill-opacity="1" fill-rule="nonzero"/><path fill="#1e0e2b" d="M 173.296875 126.207031 L 175.632812 126.207031 L 175.632812 123.871094 L 173.296875 123.871094 Z M 173.296875 126.207031 " fill-opacity="1" fill-rule="nonzero"/><path fill="#1e0e2b" d="M 178.796875 132.273438 L 181.746094 132.273438 L 181.746094 129.324219 L 178.796875 129.324219 Z M 178.796875 132.273438 " fill-opacity="1" fill-rule="nonzero"/><path fill="#1e0e2b" d="M 161.308594 155.617188 L 164.425781 155.617188 L 164.425781 152.5 L 161.308594 152.5 Z M 161.308594 155.617188 " fill-opacity="1" fill-rule="nonzero"/><path fill="#1e0e2b" d="M 167.085938 149.839844 L 170.203125 149.839844 L 170.203125 146.722656 L 167.085938 146.722656 Z M 167.085938 149.839844 " fill-opacity="1" fill-rule="nonzero"/><path fill="#1e0e2b" d="M 172.910156 144.015625 L 176.027344 144.015625 L 176.027344 140.898438 L 172.910156 140.898438 Z M 172.910156 144.015625 " fill-opacity="1" fill-rule="nonzero"/><path fill="#1e0e2b" d="M 178.960938 144.015625 L 182.082031 144.015625 L 182.082031 140.898438 L 178.960938 140.898438 Z M 178.960938 144.015625 " fill-opacity="1" fill-rule="nonzero"/><path fill="#1e0e2b" d="M 184.621094 144.015625 L 187.742188 144.015625 L 187.742188 140.898438 L 184.621094 140.898438 Z M 184.621094 144.015625 " fill-opacity="1" fill-rule="nonzero"/><path fill="#1e0e2b" d="M 190.28125 144.015625 L 193.402344 144.015625 L 193.402344 140.898438 L 190.28125 140.898438 Z M 190.28125 144.015625 " fill-opacity="1" fill-rule="nonzero"/><path fill="#1e0e2b" d="M 196.03125 144.015625 L 199.148438 144.015625 L 199.148438 140.898438 L 196.03125 140.898438 Z M 196.03125 144.015625 " fill-opacity="1" fill-rule="nonzero"/><path fill="#1e0e2b" d="M 178.691406 138.234375 L 181.808594 138.234375 L 181.808594 135.117188 L 178.691406 135.117188 Z M 178.691406 138.234375 " fill-opacity="1" fill-rule="nonzero"/><path fill="#1e0e2b" d="M 184.621094 138.234375 L 187.742188 138.234375 L 187.742188 135.117188 L 184.621094 135.117188 Z M 184.621094 138.234375 " fill-opacity="1" fill-rule="nonzero"/><path fill="#1e0e2b" d="M 190.578125 138.234375 L 193.695312 138.234375 L 193.695312 135.117188 L 190.578125 135.117188 Z M 190.578125 138.234375 " fill-opacity="1" fill-rule="nonzero"/><path fill="#1e0e2b" d="M 196.03125 138.234375 L 199.148438 138.234375 L 199.148438 135.117188 L 196.03125 135.117188 Z M 196.03125 138.234375 " fill-opacity="1" fill-rule="nonzero"/><path fill="#1e0e2b" d="M 172.960938 138.109375 L 175.910156 138.109375 L 175.910156 135.164062 L 172.960938 135.164062 Z M 172.960938 138.109375 " fill-opacity="1" fill-rule="nonzero"/><path fill="#1e0e2b" d="M 167.148438 143.921875 L 170.097656 143.921875 L 170.097656 140.976562 L 167.148438 140.976562 Z M 167.148438 143.921875 " fill-opacity="1" fill-rule="nonzero"/><path fill="#1e0e2b" d="M 161.335938 149.742188 L 164.285156 149.742188 L 164.285156 146.792969 L 161.335938 146.792969 Z M 161.335938 149.742188 " fill-opacity="1" fill-rule="nonzero"/><path fill="#1e0e2b" d="M 155.710938 149.53125 L 158.335938 149.53125 L 158.335938 146.90625 L 155.710938 146.90625 Z M 155.710938 149.53125 " fill-opacity="1" fill-rule="nonzero"/><path fill="#1e0e2b" d="M 161.484375 143.753906 L 164.109375 143.753906 L 164.109375 141.128906 L 161.484375 141.128906 Z M 161.484375 143.753906 " fill-opacity="1" fill-rule="nonzero"/><path fill="#1e0e2b" d="M 167.308594 137.929688 L 169.933594 137.929688 L 169.933594 135.304688 L 167.308594 135.304688 Z M 167.308594 137.929688 " fill-opacity="1" fill-rule="nonzero"/><path fill="#1e0e2b" d="M 173.097656 132.144531 L 175.722656 132.144531 L 175.722656 129.519531 L 173.097656 129.519531 Z M 173.097656 132.144531 " fill-opacity="1" fill-rule="nonzero"/><path fill="#1e0e2b" d="M 167.484375 132.019531 L 169.820312 132.019531 L 169.820312 129.683594 L 167.484375 129.683594 Z M 167.484375 132.019531 " fill-opacity="1" fill-rule="nonzero"/><path fill="#1e0e2b" d="M 161.671875 137.835938 L 164.007812 137.835938 L 164.007812 135.496094 L 161.671875 135.496094 Z M 161.671875 137.835938 " fill-opacity="1" fill-rule="nonzero"/><path fill="#1e0e2b" d="M 155.851562 143.652344 L 158.1875 143.652344 L 158.1875 141.316406 L 155.851562 141.316406 Z M 155.851562 143.652344 " fill-opacity="1" fill-rule="nonzero"/><path fill="#1e0e2b" d="M 150.257812 143.453125 L 152.265625 143.453125 L 152.265625 141.445312 L 150.257812 141.445312 Z M 150.257812 143.453125 " fill-opacity="1" fill-rule="nonzero"/><path fill="#1e0e2b" d="M 156.027344 137.675781 L 158.035156 137.675781 L 158.035156 135.667969 L 156.027344 135.667969 Z M 156.027344 137.675781 " fill-opacity="1" fill-rule="nonzero"/><path fill="#1e0e2b" d="M 161.851562 131.851562 L 163.859375 131.851562 L 163.859375 129.84375 L 161.851562 129.84375 Z M 161.851562 131.851562 " fill-opacity="1" fill-rule="nonzero"/><path fill="#1e0e2b" d="M 167.640625 126.066406 L 169.652344 126.066406 L 169.652344 124.058594 L 167.640625 124.058594 Z M 167.640625 126.066406 " fill-opacity="1" fill-rule="nonzero"/><path fill="#1e0e2b" d="M 161.941406 126.003906 L 163.800781 126.003906 L 163.800781 124.140625 L 161.941406 124.140625 Z M 161.941406 126.003906 " fill-opacity="1" fill-rule="nonzero"/><path fill="#1e0e2b" d="M 156.128906 131.816406 L 157.988281 131.816406 L 157.988281 129.953125 L 156.128906 129.953125 Z M 156.128906 131.816406 " fill-opacity="1" fill-rule="nonzero"/><path fill="#1e0e2b" d="M 150.316406 137.632812 L 152.175781 137.632812 L 152.175781 135.773438 L 150.316406 135.773438 Z M 150.316406 137.632812 " fill-opacity="1" fill-rule="nonzero"/><path fill="#1e0e2b" d="M 144.714844 137.433594 L 146.246094 137.433594 L 146.246094 135.902344 L 144.714844 135.902344 Z M 144.714844 137.433594 " fill-opacity="1" fill-rule="nonzero"/><path fill="#1e0e2b" d="M 150.484375 131.65625 L 152.019531 131.65625 L 152.019531 130.125 L 150.484375 130.125 Z M 150.484375 131.65625 " fill-opacity="1" fill-rule="nonzero"/><path fill="#1e0e2b" d="M 156.308594 125.839844 L 157.84375 125.839844 L 157.84375 124.304688 L 156.308594 124.304688 Z M 156.308594 125.839844 " fill-opacity="1" fill-rule="nonzero"/><path fill="#1e0e2b" d="M 162.101562 120.050781 L 163.632812 120.050781 L 163.632812 118.515625 L 162.101562 118.515625 Z M 162.101562 120.050781 " fill-opacity="1" fill-rule="nonzero"/><path fill="#1e0e2b" d="M 156.921875 120.148438 L 157.949219 120.148438 L 157.949219 119.121094 L 156.921875 119.121094 Z M 156.921875 120.148438 " fill-opacity="1" fill-rule="nonzero"/><path fill="#1e0e2b" d="M 151.109375 125.960938 L 152.136719 125.960938 L 152.136719 124.933594 L 151.109375 124.933594 Z M 151.109375 125.960938 " fill-opacity="1" fill-rule="nonzero"/><path fill="#1e0e2b" d="M 145.273438 131.796875 L 146.300781 131.796875 L 146.300781 130.769531 L 145.273438 130.769531 Z M 145.273438 131.796875 " fill-opacity="1" fill-rule="nonzero"/><g clip-path="url(#a918a73555)"><path fill="#1e0e2b" d="M 139.5 137.570312 L 140.527344 137.570312 L 140.527344 136.542969 L 139.5 136.542969 Z M 139.5 137.570312 " fill-opacity="1" fill-rule="nonzero"/></g><path fill="#1e0e2b" d="M 144.519531 143.429688 L 146.382812 143.429688 L 146.382812 141.566406 L 144.519531 141.566406 Z M 144.519531 143.429688 " fill-opacity="1" fill-rule="nonzero"/><path fill="#1e0e2b" d="M 150.0625 149.441406 L 152.398438 149.441406 L 152.398438 147.105469 L 150.0625 147.105469 Z M 150.0625 149.441406 " fill-opacity="1" fill-rule="nonzero"/><path fill="#1e0e2b" d="M 155.566406 155.507812 L 158.511719 155.507812 L 158.511719 152.558594 L 155.566406 152.558594 Z M 155.566406 155.507812 " fill-opacity="1" fill-rule="nonzero"/><path fill="#1e0e2b" d="M 226 143.078125 L 227.859375 143.078125 L 227.859375 141.214844 L 226 141.214844 Z M 226 143.078125 " fill-opacity="1" fill-rule="nonzero"/><path fill="#1e0e2b" d="M 219.980469 149.089844 L 222.316406 149.089844 L 222.316406 146.753906 L 219.980469 146.753906 Z M 219.980469 149.089844 " fill-opacity="1" fill-rule="nonzero"/><path fill="#1e0e2b" d="M 213.921875 155.203125 L 216.871094 155.203125 L 216.871094 152.253906 L 213.921875 152.253906 Z M 213.921875 155.203125 " fill-opacity="1" fill-rule="nonzero"/><g clip-path="url(#c84ee68bc6)"><path fill="#1e0e2b" d="M 205.976562 163.074219 L 206.046875 163.074219 L 206.046875 168.253906 L 200.242188 168.253906 L 200.242188 174.066406 L 194.664062 174.066406 L 194.664062 179.875 L 188.957031 179.875 L 188.957031 185.652344 L 183.472656 185.652344 L 183.472656 179.875 L 177.765625 179.875 L 177.765625 174.066406 L 172.128906 174.066406 L 172.128906 168.253906 L 166.320312 168.253906 L 166.320312 162.417969 L 160.542969 162.417969 L 160.542969 156.207031 L 166.449219 156.207031 L 166.449219 151.226562 L 172.527344 151.226562 L 172.527344 145.984375 L 199.902344 145.984375 L 199.902344 151.226562 L 206.046875 151.226562 L 206.046875 156.207031 L 211.882812 156.207031 L 211.882812 162.417969 L 205.976562 162.417969 Z M 205.976562 163.074219 " fill-opacity="1" fill-rule="nonzero"/></g><path fill="#1e0e2b" d="M 202.179688 149.484375 L 205.296875 149.484375 L 205.296875 146.367188 L 202.179688 146.367188 Z M 202.179688 149.484375 " fill-opacity="1" fill-rule="nonzero"/><path fill="#1e0e2b" d="M 207.960938 155.265625 L 211.082031 155.265625 L 211.082031 152.148438 L 207.960938 152.148438 Z M 207.960938 155.265625 " fill-opacity="1" fill-rule="nonzero"/><path fill="#1e0e2b" d="M 208.085938 149.367188 L 211.035156 149.367188 L 211.035156 146.417969 L 208.085938 146.417969 Z M 208.085938 149.367188 " fill-opacity="1" fill-rule="nonzero"/><path fill="#1e0e2b" d="M 202.273438 143.554688 L 205.21875 143.554688 L 205.21875 140.605469 L 202.273438 140.605469 Z M 202.273438 143.554688 " fill-opacity="1" fill-rule="nonzero"/><path fill="#1e0e2b" d="M 196.277344 131.792969 L 198.902344 131.792969 L 198.902344 129.167969 L 196.277344 129.167969 Z M 196.277344 131.792969 " fill-opacity="1" fill-rule="nonzero"/><path fill="#1e0e2b" d="M 202.441406 137.570312 L 205.066406 137.570312 L 205.066406 134.945312 L 202.441406 134.945312 Z M 202.441406 137.570312 " fill-opacity="1" fill-rule="nonzero"/><path fill="#1e0e2b" d="M 208.269531 143.394531 L 210.890625 143.394531 L 210.890625 140.769531 L 208.269531 140.769531 Z M 208.269531 143.394531 " fill-opacity="1" fill-rule="nonzero"/><path fill="#1e0e2b" d="M 214.050781 149.179688 L 216.675781 149.179688 L 216.675781 146.554688 L 214.050781 146.554688 Z M 214.050781 149.179688 " fill-opacity="1" fill-rule="nonzero"/><path fill="#1e0e2b" d="M 214.175781 143.277344 L 216.511719 143.277344 L 216.511719 140.941406 L 214.175781 140.941406 Z M 214.175781 143.277344 " fill-opacity="1" fill-rule="nonzero"/><path fill="#1e0e2b" d="M 208.363281 137.46875 L 210.699219 137.46875 L 210.699219 135.132812 L 208.363281 135.132812 Z M 208.363281 137.46875 " fill-opacity="1" fill-rule="nonzero"/><path fill="#1e0e2b" d="M 202.542969 131.652344 L 204.878906 131.652344 L 204.878906 129.3125 L 202.542969 129.3125 Z M 202.542969 131.652344 " fill-opacity="1" fill-rule="nonzero"/><path fill="#1e0e2b" d="M 202.742188 125.722656 L 204.75 125.722656 L 204.75 123.714844 L 202.742188 123.714844 Z M 202.742188 125.722656 " fill-opacity="1" fill-rule="nonzero"/><path fill="#1e0e2b" d="M 208.515625 131.5 L 210.523438 131.5 L 210.523438 129.492188 L 208.515625 129.492188 Z M 208.515625 131.5 " fill-opacity="1" fill-rule="nonzero"/><path fill="#1e0e2b" d="M 214.339844 137.316406 L 216.347656 137.316406 L 216.347656 135.308594 L 214.339844 135.308594 Z M 214.339844 137.316406 " fill-opacity="1" fill-rule="nonzero"/><path fill="#1e0e2b" d="M 220.128906 143.105469 L 222.136719 143.105469 L 222.136719 141.097656 L 220.128906 141.097656 Z M 220.128906 143.105469 " fill-opacity="1" fill-rule="nonzero"/><path fill="#1e0e2b" d="M 220.1875 137.265625 L 222.046875 137.265625 L 222.046875 135.402344 L 220.1875 135.402344 Z M 220.1875 137.265625 " fill-opacity="1" fill-rule="nonzero"/><path fill="#1e0e2b" d="M 214.378906 131.453125 L 216.242188 131.453125 L 216.242188 129.589844 L 214.378906 129.589844 Z M 214.378906 131.453125 " fill-opacity="1" fill-rule="nonzero"/><path fill="#1e0e2b" d="M 208.5625 125.632812 L 210.421875 125.632812 L 210.421875 123.773438 L 208.5625 123.773438 Z M 208.5625 125.632812 " fill-opacity="1" fill-rule="nonzero"/><path fill="#1e0e2b" d="M 208.761719 119.703125 L 210.292969 119.703125 L 210.292969 118.171875 L 208.761719 118.171875 Z M 208.761719 119.703125 " fill-opacity="1" fill-rule="nonzero"/><path fill="#1e0e2b" d="M 214.53125 125.480469 L 216.066406 125.480469 L 216.066406 123.949219 L 214.53125 123.949219 Z M 214.53125 125.480469 " fill-opacity="1" fill-rule="nonzero"/><path fill="#1e0e2b" d="M 220.355469 131.300781 L 221.890625 131.300781 L 221.890625 129.765625 L 220.355469 129.765625 Z M 220.355469 131.300781 " fill-opacity="1" fill-rule="nonzero"/><path fill="#1e0e2b" d="M 226.148438 137.089844 L 227.679688 137.089844 L 227.679688 135.554688 L 226.148438 135.554688 Z M 226.148438 137.089844 " fill-opacity="1" fill-rule="nonzero"/><path fill="#1e0e2b" d="M 226.046875 131.40625 L 227.074219 131.40625 L 227.074219 130.378906 L 226.046875 130.378906 Z M 226.046875 131.40625 " fill-opacity="1" fill-rule="nonzero"/><path fill="#1e0e2b" d="M 220.234375 125.597656 L 221.261719 125.597656 L 221.261719 124.570312 L 220.234375 124.570312 Z M 220.234375 125.597656 " fill-opacity="1" fill-rule="nonzero"/><path fill="#1e0e2b" d="M 214.390625 119.753906 L 215.417969 119.753906 L 215.417969 118.726562 L 214.390625 118.726562 Z M 214.390625 119.753906 " fill-opacity="1" fill-rule="nonzero"/><path fill="#1e0e2b" d="M 208.621094 113.984375 L 209.648438 113.984375 L 209.648438 112.957031 L 208.621094 112.957031 Z M 208.621094 113.984375 " fill-opacity="1" fill-rule="nonzero"/><path fill="#1e0e2b" d="M 202.765625 119.84375 L 204.628906 119.84375 L 204.628906 117.980469 L 202.765625 117.980469 Z M 202.765625 119.84375 " fill-opacity="1" fill-rule="nonzero"/><path fill="#1e0e2b" d="M 196.367188 125.855469 L 198.703125 125.855469 L 198.703125 123.519531 L 196.367188 123.519531 Z M 196.367188 125.855469 " fill-opacity="1" fill-rule="nonzero"/><path fill="#1e0e2b" d="M 190.6875 131.96875 L 193.636719 131.96875 L 193.636719 129.019531 L 190.6875 129.019531 Z M 190.6875 131.96875 " fill-opacity="1" fill-rule="nonzero"/><g fill="#ffffff" fill-opacity="1"><g transform="translate(168.570989, 188.855671)"><g><path d="M 1.296875 0 L 1.296875 -2.5 L 13.203125 -18.15625 L 2.296875 -32.5 L 2.296875 -35 L 10.703125 -35 L 18.59375 -24 L 19.453125 -24 L 27.40625 -35 L 35.5 -35 L 35.5 -32.5 L 24.59375 -18.15625 L 36.5 -2.5 L 36.5 0 L 28.15625 0 L 19.203125 -12.40625 L 18.34375 -12.40625 L 9.453125 0 Z M 1.296875 0 "/></g></g></g></svg>